<?xml version="1.0" encoding="UTF-8" standalone="no"?>
<!-- Created with Inkscape (http://www.inkscape.org/) -->

<svg
   width="35.482964mm"
   height="33.881996mm"
   viewBox="0 0 35.482964 33.881996"
   version="1.1"
   id="svg5"
   inkscape:export-filename="eyes.svg"
   inkscape:export-xdpi="96"
   inkscape:export-ydpi="96"
   xmlns:inkscape="http://www.inkscape.org/namespaces/inkscape"
   xmlns:sodipodi="http://sodipodi.sourceforge.net/DTD/sodipodi-0.dtd"
   xmlns:xlink="http://www.w3.org/1999/xlink"
   xmlns="http://www.w3.org/2000/svg"
   xmlns:svg="http://www.w3.org/2000/svg">
  <sodipodi:namedview
     id="namedview7"
     pagecolor="#505050"
     bordercolor="#eeeeee"
     borderopacity="1"
     inkscape:showpageshadow="0"
     inkscape:pageopacity="0"
     inkscape:pagecheckerboard="0"
     inkscape:deskcolor="#505050"
     inkscape:document-units="mm"
     showgrid="false"
     showguides="false" />
  <defs
     id="defs2">
    <linearGradient
       inkscape:collect="always"
       id="linearGradient1488">
      <stop
         style="stop-color:#000000;stop-opacity:1;"
         offset="0"
         id="stop1484" />
      <stop
         style="stop-color:#13656f;stop-opacity:0.69057417;"
         offset="1"
         id="stop1486" />
    </linearGradient>
    <radialGradient
       inkscape:collect="always"
       xlink:href="#linearGradient1488"
       id="radialGradient1490"
       cx="4.8875756"
       cy="3.2991874"
       fx="4.8875756"
       fy="3.2991874"
       r="1.5952908"
       gradientTransform="matrix(1,0,0,1.3242955,0.19042295,-0.80213993)"
       gradientUnits="userSpaceOnUse" />
    <radialGradient
       inkscape:collect="always"
       xlink:href="#linearGradient1488"
       id="radialGradient2222"
       gradientUnits="userSpaceOnUse"
       gradientTransform="matrix(1,0,0,1.3242955,5.2544834,-0.25053021)"
       cx="4.8875756"
       cy="3.2991874"
       fx="4.8875756"
       fy="3.2991874"
       r="1.5952908" />
  </defs>
  <g
     inkscape:label="Layer 1"
     inkscape:groupmode="layer"
     id="layer1"
     transform="translate(-16.806366,-73.286566)">
    <path
       style="fill:#00e9f2;fill-opacity:1;stroke:#3b9c9a;stroke-width:0.314;stroke-linecap:round;stroke-linejoin:round;stroke-dasharray:none;stroke-opacity:0.799206"
       d="M 2.474522,1.7925382 C 1.6473724,3.7258498 2.4269163,7.5067863 2.4269163,7.5067863 l 2.7432806,0.1499521 c 0,0 1.6662008,-4.8466676 0.6724311,-5.8695557 -0.9937699,-1.02288787 -3.368106,0.00536 -3.368106,0.00536 z"
       id="chiBlueEye1"
       inkscape:label="chiBlueEye1" />
    <path
       style="fill:url(#radialGradient1490);fill-opacity:1;stroke:#000000;stroke-width:0.614;stroke-linejoin:round;stroke-dasharray:none"
       d="M 4.4918152,1.7818273 C 3.9800534,3.3509694 3.5873061,4.8986899 3.9026942,5.1985943 4.2180821,5.4984984 5.1285419,5.4449441 5.5748455,4.689828 6.0211495,3.9347117 6.366291,3.4420118 6.366291,3.4420118 c 0,0 -0.2737329,-1.6601845 -0.8807061,-1.6762508 C 4.8786117,1.749695 4.4918152,1.781827 4.4918152,1.7818273 Z"
       id="chiBluePupil1"
       inkscape:label="chiBluePupil1" />
    <path
       style="fill:#00e9f2;fill-opacity:1;stroke:#3b9c9a;stroke-width:0.314;stroke-linecap:round;stroke-linejoin:round;stroke-dasharray:none;stroke-opacity:0.799206"
       d="M 9.0976703,2.4244794 C 8.2705207,4.357791 9.0500646,8.1387275 9.0500646,8.1387275 l 2.7432804,0.1499521 c 0,0 1.666201,-4.8466676 0.672431,-5.8695557 -0.99377,-1.0228878 -3.3681057,0.00536 -3.3681057,0.00536 z"
       id="chiBlueEye2"
       inkscape:label="chiBlueEye2" />
    <path
       style="fill:url(#radialGradient2222);fill-opacity:1;stroke:#000000;stroke-width:0.614;stroke-linejoin:round;stroke-dasharray:none"
       d="m 9.5558761,2.333437 c -0.511762,1.5691421 -0.90451,3.1168626 -0.589121,3.416767 0.315387,0.2999041 1.2258469,0.2463498 1.6721509,-0.5087663 0.446304,-0.7551163 0.791445,-1.2478162 0.791445,-1.2478162 0,0 -0.273733,-1.6601845 -0.880706,-1.6762508 -0.6069729,-0.016066 -0.9937689,0.016066 -0.9937689,0.016066 z"
       id="chiBluePupil2"
       inkscape:label="chiBluePupil2" />
  </g>
</svg>
