<?xml version="1.0" encoding="UTF-8" standalone="no"?>
<!-- Created with Inkscape (http://www.inkscape.org/) -->

<svg
   width="129.1757mm"
   height="123.28113mm"
   viewBox="0 0 129.1757 123.28113"
   version="1.1"
   id="charframe"
   xml:space="preserve"
   inkscape:export-filename="bitmap.svg"
   inkscape:export-xdpi="97.875015"
   inkscape:export-ydpi="97.875015"
   sodipodi:docname="bitmap.svg"
   xmlns:inkscape="http://www.inkscape.org/namespaces/inkscape"
   xmlns:sodipodi="http://sodipodi.sourceforge.net/DTD/sodipodi-0.dtd"
   xmlns="http://www.w3.org/2000/svg"
   xmlns:svg="http://www.w3.org/2000/svg"><sodipodi:namedview
     id="charFrame"
     pagecolor="#505050"
     bordercolor="#eeeeee"
     borderopacity="1"
     inkscape:showpageshadow="0"
     inkscape:pageopacity="0"
     inkscape:pagecheckerboard="0"
     inkscape:deskcolor="#505050"
     inkscape:document-units="mm"
     showgrid="false" /><defs
     id="defs2"><inkscape:path-effect
       effect="spiro"
       id="path-effect2564"
       is_visible="true"
       lpeversion="1" /><inkscape:path-effect
       effect="spiro"
       id="path-effect1036"
       is_visible="true"
       lpeversion="1" /></defs><g
     inkscape:label="Layer 1"
     inkscape:groupmode="layer"
     id="layer1"
     transform="translate(-42.898616,-83.899961)"><path
       style="fill:#f2e600;fill-opacity:1;stroke:#000000;stroke-width:2.5;stroke-linejoin:round;stroke-dasharray:none;stroke-opacity:1"
       d="m 48.071828,128.1406 c 11.734813,-9.48983 22.065257,-13.81702 25.540477,-15.29512 3.47522,-1.4781 15.709895,-6.96206 20.470469,-9.6612 4.760573,-2.69914 24.516956,-7.668983 29.444146,-9.211348 4.92719,-1.542365 14.18651,-3.513164 19.9468,-4.348612 5.7603,-0.835449 7.4741,-0.321326 12.52031,-1.328148 5.04621,-1.006821 10.97313,-3.70596 12.32989,-2.977621 1.35676,0.72834 0.59507,4.005863 -1.6662,7.390498 -2.26127,3.384635 -0.54747,12.403181 0.76169,14.309721 1.30916,1.90653 3.3562,8.05457 3.40381,10.56092 0.0476,2.50634 -1.71381,7.51903 -4.1893,8.37589 -2.4755,0.85687 -5.87931,0.57839 -5.87931,0.57839 0,0 -1.73761,5.44112 -1.83282,8.29021 -0.0952,2.84909 -0.49986,19.0225 -0.28564,21.6788 0.21423,2.6563 -0.0476,15.85209 1.16634,19.19388 1.21395,3.34179 -2.4755,18.14421 -4.02268,19.5152 -1.54719,1.37099 -80.739332,5.48396 -90.688932,9.83258 -9.949598,4.34861 -18.756659,-7.90462 -18.304407,-16.83749 0.452255,-8.93286 2.166062,-20.32923 1.713807,-23.43538 -0.452255,-3.10615 -1.713807,-9.51125 -1.475777,-14.82384 0.23803,-5.31259 0.166621,-9.98253 -0.285634,-10.8394 -0.452254,-0.85687 -2.784935,-5.33401 -2.57071,-7.36908 0.214226,-2.03506 4.498742,-5.5268 3.903671,-3.59885 z"
       id="path1194"
       inkscape:label="body" /><path
       style="fill:#000000;fill-opacity:1;stroke-width:1.06391"
       id="eye1"
       sodipodi:type="arc"
       sodipodi:cx="71.846947"
       sodipodi:cy="139.43338"
       sodipodi:rx="6.0935349"
       sodipodi:ry="6.3194122"
       sodipodi:start="0"
       sodipodi:end="6.2651828"
       sodipodi:open="true"
       sodipodi:arc-type="arc"
       d="m 77.940482,139.43338 a 6.0935349,6.3194122 0 0 1 -6.066111,6.31935 6.0935349,6.3194122 0 0 1 -6.120712,-6.26247 6.0935349,6.3194122 0 0 1 6.011016,-6.37572 6.0935349,6.3194122 0 0 1 6.174819,6.20508"
       inkscape:label="eye1" /><path
       style="fill:#ffca18;fill-opacity:1;stroke-width:1.064;stroke-dasharray:none"
       id="path3886"
       sodipodi:type="arc"
       sodipodi:cx="94.364464"
       sodipodi:cy="180.3703"
       sodipodi:rx="6.0935349"
       sodipodi:ry="6.3194122"
       sodipodi:start="0"
       sodipodi:end="6.2651828"
       sodipodi:open="true"
       sodipodi:arc-type="arc"
       d="m 100.458,180.3703 a 6.0935349,6.3194122 0 0 1 -6.066112,6.31935 6.0935349,6.3194122 0 0 1 -6.120712,-6.26247 6.0935349,6.3194122 0 0 1 6.011016,-6.37572 6.0935349,6.3194122 0 0 1 6.174818,6.20508"
       inkscape:label="spot1" /><path
       style="fill:#000000;fill-opacity:1;stroke-width:1"
       d="m 69.895114,157.74895 c 1.706347,1.04061 3.420213,2.06889 5.14142,3.08473 3.352629,1.97869 6.775303,3.92836 10.517865,5.00008 3.742562,1.07172 7.885983,1.19872 11.428381,-0.41583 2.3906,-1.08958 4.36955,-2.89449 6.55798,-4.34808 1.09422,-0.7268 2.25409,-1.37193 3.50404,-1.77585 1.24995,-0.40393 2.59816,-0.55914 3.88646,-0.30259 1.2735,0.2536 2.44933,0.90273 3.42762,1.75658 1.43121,1.24916 2.4612,2.95111 2.90395,4.79847 l -0.66648,3.17042 c -4.78655,5.73624 -11.41835,9.90801 -18.661457,11.73911 -4.268461,1.07909 -8.770245,1.35691 -13.091575,0.51412 -2.953332,-0.57599 -5.784566,-1.66294 -8.521429,-2.91335 -3.173379,-1.44984 -6.27319,-3.14721 -8.878095,-5.46817 -2.604906,-2.32095 -4.701984,-5.31636 -5.498837,-8.71303 -0.539597,-2.30009 -0.454427,-4.79008 0.523663,-6.94064 0.175377,-0.38561 0.380695,-0.76227 0.661027,-1.07986 0.280332,-0.3176 0.64164,-0.57467 1.05278,-0.67672 0.356674,-0.0885 0.731973,-0.0576 1.094933,0 1.776105,0.28171 3.442578,1.20941 4.617754,2.57061 z"
       id="mouth"
       inkscape:path-effect="#path-effect1036"
       inkscape:original-d="m 69.895114,157.74895 c 2.136153,0.29707 3.286675,2.25012 5.14142,3.08473 7.230272,3.25349 13.642057,8.45938 21.946246,4.58425 3.98404,-1.85914 9.60576,-6.98485 13.94848,-6.42652 1.34363,0.17274 2.3184,1.09108 3.42762,1.75658 2.28287,1.36967 2.90395,2.01497 2.90395,4.79847 -0.22443,1.26584 -0.0359,7.91337 -0.66648,3.17042 -1.98377,7.87826 -11.30913,11.6403 -18.661457,11.73911 -4.361656,0 -8.732586,0.77565 -13.091575,0.51412 -1.92514,-0.1155 -6.790559,-2.16836 -8.521429,-2.91335 -7.902583,-3.40141 -9.784721,-6.74211 -14.376932,-14.1812 -1.708047,-2.76693 -1.773611,-4.5286 0.523663,-6.94064 0.495292,-0.52003 1.049115,-1.45748 1.713807,-1.75658 0.273928,-0.12326 0.794588,0 1.094933,0 2.170038,0 3.073095,0.94878 4.617754,2.57061 z"
       sodipodi:nodetypes="csssscccssssssc"
       inkscape:label="mouth" /><path
       style="fill:#ffca18;fill-opacity:1;stroke-width:1.06391"
       id="path2566"
       sodipodi:type="arc"
       sodipodi:cx="102.21941"
       sodipodi:cy="142.92511"
       sodipodi:rx="6.0935349"
       sodipodi:ry="6.3194122"
       sodipodi:start="0"
       sodipodi:end="6.2651828"
       sodipodi:open="true"
       sodipodi:arc-type="arc"
       d="m 108.31295,142.92511 a 6.0935349,6.3194122 0 0 1 -6.06611,6.31935 6.0935349,6.3194122 0 0 1 -6.120714,-6.26247 6.0935349,6.3194122 0 0 1 6.011014,-6.37572 6.0935349,6.3194122 0 0 1 6.17482,6.20508"
       inkscape:label="spot1" /><path
       style="fill:#000000;fill-opacity:1;stroke-width:1.06391"
       id="eye2"
       sodipodi:type="arc"
       sodipodi:cx="112.78788"
       sodipodi:cy="140.07602"
       sodipodi:rx="6.0935349"
       sodipodi:ry="6.3194122"
       sodipodi:start="0"
       sodipodi:end="6.2651828"
       sodipodi:open="true"
       sodipodi:arc-type="arc"
       d="m 118.88141,140.07602 a 6.0935349,6.3194122 0 0 1 -6.06611,6.31935 6.0935349,6.3194122 0 0 1 -6.12071,-6.26247 6.0935349,6.3194122 0 0 1 6.01102,-6.37572 6.0935349,6.3194122 0 0 1 6.17482,6.20508"
       inkscape:label="eye2" /><path
       style="fill:none;fill-opacity:0.579879;stroke:#000000;stroke-width:2.52355;stroke-linejoin:round;stroke-dasharray:none;stroke-opacity:1"
       d="m 48.261896,128.14058 c 3.858298,0.54289 7.732296,0.97418 11.61552,1.29317 4.200107,0.34502 8.411006,0.55864 12.624466,0.64046 l 18.352308,-0.88525 c 4.109419,-0.43794 8.221424,-0.85159 12.33573,-1.24095 4.94939,-0.46838 9.90212,-0.90159 14.85767,-1.29959 l 16.2928,0.30685 24.33607,-0.71891 2.93824,-0.0856"
       id="path2562"
       inkscape:path-effect="#path-effect2564"
       inkscape:original-d="m 48.261896,128.14058 c 3.831485,0.48511 7.643932,1.88494 11.61552,1.29317 4.24035,-0.51915 8.429306,0.2816 12.624466,0.64046 6.129016,-0.0276 12.240046,-0.63098 18.352308,-0.88525 3.994947,-0.88987 8.255048,-0.61005 12.33573,-1.24095 4.88337,-1.06406 9.91161,-0.81599 14.85767,-1.29959 5.40092,-1.43412 10.83507,0.7763 16.2928,0.30685 8.11217,-0.0785 16.32495,0.95721 24.33607,-0.71891 0.13043,-0.31517 5.18988,-0.0499 2.93824,-0.0856"
       sodipodi:nodetypes="czzzzzzzzzzzzzzzzzzzzzzc"
       inkscape:label="path2562" /><path
       style="fill:#ffca18;fill-opacity:1;stroke-width:1.06391"
       id="path2569"
       sodipodi:type="arc"
       sodipodi:cx="154.15727"
       sodipodi:cy="140.03317"
       sodipodi:rx="6.0935349"
       sodipodi:ry="6.3194122"
       sodipodi:start="0"
       sodipodi:end="6.2651828"
       sodipodi:open="true"
       sodipodi:arc-type="arc"
       d="m 160.25081,140.03317 a 6.0935349,6.3194122 0 0 1 -6.06611,6.31935 6.0935349,6.3194122 0 0 1 -6.12072,-6.26247 6.0935349,6.3194122 0 0 1 6.01102,-6.37571 6.0935349,6.3194122 0 0 1 6.17482,6.20507"
       inkscape:label="spot1" /><path
       style="fill:#ffca18;fill-opacity:1;stroke-width:1.06391"
       id="path2571"
       sodipodi:type="arc"
       sodipodi:cx="152.56248"
       sodipodi:cy="103.29489"
       sodipodi:rx="6.0935349"
       sodipodi:ry="6.3194122"
       sodipodi:start="0"
       sodipodi:end="6.2651828"
       sodipodi:open="true"
       sodipodi:arc-type="arc"
       d="m 158.65602,103.29489 a 6.0935349,6.3194122 0 0 1 -6.06611,6.31935 6.0935349,6.3194122 0 0 1 -6.12071,-6.26247 6.0935349,6.3194122 0 0 1 6.01101,-6.375715 6.0935349,6.3194122 0 0 1 6.17482,6.205075"
       inkscape:label="spot1" /><path
       style="fill:#ffca18;fill-opacity:1;stroke-width:1.06391"
       id="path2573"
       sodipodi:type="arc"
       sodipodi:cx="100.50561"
       sodipodi:cy="111.56368"
       sodipodi:rx="6.0935349"
       sodipodi:ry="6.3194122"
       sodipodi:start="0"
       sodipodi:end="6.2651828"
       sodipodi:open="true"
       sodipodi:arc-type="arc"
       d="m 106.59914,111.56368 a 6.0935349,6.3194122 0 0 1 -6.06611,6.31935 6.0935349,6.3194122 0 0 1 -6.12071,-6.26247 6.0935349,6.3194122 0 0 1 6.01102,-6.37571 6.0935349,6.3194122 0 0 1 6.17482,6.20507"
       inkscape:label="spot1" /></g></svg>
