<svg version="1.1" xmlns="http://www.w3.org/2000/svg" xmlns:xlink="http://www.w3.org/1999/xlink" width="70.79193" height="69.90183" viewBox="0,0,70.79193,69.90183"><defs><radialGradient cx="240" cy="180.00018" r="35.39596" gradientUnits="userSpaceOnUse" id="color-1"><stop offset="0" stop-color="#ffeaae"/><stop offset="1" stop-color="#d0af8e"/></radialGradient><linearGradient x1="237.82942" y1="146.46197" x2="237.82942" y2="161.1598" gradientUnits="userSpaceOnUse" id="color-2"><stop offset="0" stop-color="#7e5409"/><stop offset="1" stop-color="#644307"/></linearGradient><linearGradient x1="219.93472" y1="174.63932" x2="219.93472" y2="189.33716" gradientUnits="userSpaceOnUse" id="color-3"><stop offset="0" stop-color="#7e5409"/><stop offset="1" stop-color="#644307"/></linearGradient><linearGradient x1="224.79339" y1="197.72896" x2="224.79339" y2="205.55681" gradientUnits="userSpaceOnUse" id="color-4"><stop offset="0" stop-color="#7e5409"/><stop offset="1" stop-color="#644307"/></linearGradient><linearGradient x1="259.18906" y1="189.44438" x2="259.18906" y2="196.72264" gradientUnits="userSpaceOnUse" id="color-5"><stop offset="0" stop-color="#7e5409"/><stop offset="1" stop-color="#644307"/></linearGradient><linearGradient x1="248.44833" y1="169.94149" x2="248.44833" y2="177.76934" gradientUnits="userSpaceOnUse" id="color-6"><stop offset="0" stop-color="#7e5409"/><stop offset="1" stop-color="#644307"/></linearGradient><linearGradient x1="226.59652" y1="157.98245" x2="226.59652" y2="165.8103" gradientUnits="userSpaceOnUse" id="color-7"><stop offset="0" stop-color="#7e5409"/><stop offset="1" stop-color="#644307"/></linearGradient><linearGradient x1="240.92399" y1="202.55354" x2="240.92399" y2="210.38139" gradientUnits="userSpaceOnUse" id="color-8"><stop offset="0" stop-color="#7e5409"/><stop offset="1" stop-color="#644307"/></linearGradient></defs><g transform="translate(-204.60403,-145.04926)"><g data-paper-data="{&quot;isPaintingLayer&quot;:true}" fill-rule="nonzero" stroke="none" stroke-linecap="butt" stroke-linejoin="miter" stroke-miterlimit="10" stroke-dasharray="" stroke-dashoffset="0" style="mix-blend-mode: normal"><path d="M275.39597,180c0,5.9412 -2.34925,13.23208 -4.99768,18.13111c-2.33703,4.323 -8.0892,9.03908 -11.59918,12.14376c-5.43566,4.808 -10.57677,4.67587 -18.79911,4.67587c-4.24663,0 -10.01451,-0.37615 -13.78729,-1.63058c-6.27853,-2.08757 -10.03257,-6.10737 -14.08011,-11.20302c-4.7164,-5.9377 -7.52856,-13.98579 -7.52856,-22.11714c0,-8.55605 0.56975,-10.74101 5.73918,-16.81644c3.77484,-4.43643 6.96187,-10.12635 13.23717,-13.87614c4.51865,-2.70011 11.86343,-4.25816 16.41961,-4.25816c5.47368,0 9.52656,3.20538 14.15321,5.39575c6.28692,2.97638 10.16552,6.89673 14.02488,12.24973c3.44383,4.77666 7.21787,10.75166 7.21787,17.30525z" fill="url(#color-1)" stroke-width="none"/><path d="M245.3883,153.81088c0,4.05869 -3.38423,7.34892 -7.55889,7.34892c-4.17466,0 -7.55889,-3.29022 -7.55889,-7.34892c0,-4.05869 3.38423,-7.34892 7.55889,-7.34892c4.17466,0 7.55889,3.29022 7.55889,7.34892z" fill="url(#color-2)" stroke-width="0"/><path d="M227.4936,181.98824c0,4.0587 -3.38423,7.34892 -7.55888,7.34892c-4.17466,0 -7.55889,-3.29022 -7.55889,-7.34892c0,-4.05869 3.38423,-7.34892 7.55889,-7.34892c4.17465,0 7.55888,3.29022 7.55888,7.34892z" fill="url(#color-3)" stroke-width="0"/><path d="M228.81914,201.64289c0,2.1616 -1.80239,3.91393 -4.02575,3.91393c-2.22336,0 -4.02575,-1.75233 -4.02575,-3.91393c0,-2.1616 1.80239,-3.91392 4.02575,-3.91392c2.22336,0 4.02575,1.75232 4.02575,3.91392z" fill="url(#color-4)" stroke-width="0"/><path d="M262.93216,193.08351c0,2.00983 -1.67584,3.63913 -3.7431,3.63913c-2.06726,0 -3.7431,-1.62929 -3.7431,-3.63913c0,-2.00983 1.67584,-3.63913 3.7431,-3.63913c2.06726,0 3.7431,1.62929 3.7431,3.63913z" fill="url(#color-5)" stroke-width="0"/><path d="M252.47408,173.85541c0,2.1616 -1.80239,3.91393 -4.02575,3.91393c-2.22336,0 -4.02575,-1.75233 -4.02575,-3.91393c0,-2.1616 1.80239,-3.91393 4.02575,-3.91393c2.22336,0 4.02575,1.75233 4.02575,3.91393z" fill="url(#color-6)" stroke-width="0"/><path d="M230.62227,161.89637c0,2.1616 -1.80239,3.91393 -4.02575,3.91393c-2.22336,0 -4.02575,-1.75233 -4.02575,-3.91393c0,-2.1616 1.80239,-3.91393 4.02575,-3.91393c2.22336,0 4.02575,1.75233 4.02575,3.91393z" fill="url(#color-7)" stroke-width="0"/><path d="M244.94974,206.46746c0,2.1616 -1.80239,3.91393 -4.02575,3.91393c-2.22336,0 -4.02575,-1.75233 -4.02575,-3.91393c0,-2.1616 1.80239,-3.91393 4.02575,-3.91393c2.22336,0 4.02575,1.75233 4.02575,3.91393z" fill="url(#color-8)" stroke-width="0"/></g></g></svg>